<?xml version="1.0" ?><!DOCTYPE svg  PUBLIC '-//W3C//DTD SVG 1.1//EN'  'http://www.w3.org/Graphics/SVG/1.1/DTD/svg11.dtd'><svg enable-background="new 0 0 512 512" height="62px" version="1.1" viewBox="0 0 512 512" width="62px" xml:space="preserve" xmlns="http://www.w3.org/2000/svg" xmlns:xlink="http://www.w3.org/1999/xlink"><g><g id="Guides"/><g id="Layer_2"><g><path d="M506,256.879c0,138.066-111.934,250-250,250c-138.067,0-250-111.934-250-250      c0-138.067,111.933-250,250-250C394.066,6.879,506,118.812,506,256.879L506,256.879z M506,256.879" fill="#82c8bd"/><path d="M405.36,276.985v103.076h-59.753v-96.157c0-24.153-8.617-40.647-30.269-40.647      c-16.493,0-26.308,11.119-30.638,21.869c-1.588,3.83-1.98,9.161-1.98,14.558v100.378h-59.774c0,0,0.805-162.873,0-179.734      h59.774v25.478c-0.108,0.196-0.282,0.389-0.392,0.585h0.392v-0.585c7.943-12.227,22.108-29.702,53.856-29.702      C375.897,196.104,405.36,221.802,405.36,276.985L405.36,276.985z M160.452,113.698c-20.455,0-33.815,13.426-33.815,31.052      c0,17.255,12.969,31.049,33.032,31.049h0.37c20.846,0,33.815-13.793,33.815-31.049      C193.462,127.125,180.885,113.698,160.452,113.698L160.452,113.698z M130.184,380.062h59.731V200.328h-59.731V380.062z       M130.184,380.062" fill="#F2F2F2"/></g></g></g></svg>