<svg xmlns="http://www.w3.org/2000/svg" viewBox="0 0 311.8 63"><title>ic_spray</title><path d="M154.6,35.2A30.3,30.3,0,1,1,124.3,5a30.34,30.34,0,0,1,30.3,30.2h0Z" transform="translate(-10.6 -5)" fill="#84c8bd"/><path d="M142.9,26.7a11.86,11.86,0,0,1-4.2,1.1,7.5,7.5,0,0,0,3.2-4,17,17,0,0,1-4.6,1.8,7.22,7.22,0,0,0-12.5,4.9,9.85,9.85,0,0,0,.2,1.7,20.55,20.55,0,0,1-14.9-7.6,7.49,7.49,0,0,0-1,3.6,7.3,7.3,0,0,0,3.2,6,7.39,7.39,0,0,1-3.3-.9v0.1a7.29,7.29,0,0,0,5.8,7.1,5.82,5.82,0,0,1-1.9.3,6.6,6.6,0,0,1-1.4-.1,7.11,7.11,0,0,0,6.8,5,14.84,14.84,0,0,1-9,3.1,9.15,9.15,0,0,1-1.7-.1A20.12,20.12,0,0,0,118.7,52c13.3,0,20.6-11,20.6-20.6V30.5a14.52,14.52,0,0,0,3.6-3.8h0Z" transform="translate(-10.6 -5)" fill="#f3f2f2"/><path d="M154.6,35.2A30.3,30.3,0,1,1,124.3,5a30.34,30.34,0,0,1,30.3,30.2h0Z" transform="translate(-10.6 -5)" fill="#84c8bd"/><path d="M142.9,26.7a11.86,11.86,0,0,1-4.2,1.1,7.5,7.5,0,0,0,3.2-4,17,17,0,0,1-4.6,1.8,7.22,7.22,0,0,0-12.5,4.9,9.85,9.85,0,0,0,.2,1.7,20.55,20.55,0,0,1-14.9-7.6,7.49,7.49,0,0,0-1,3.6,7.3,7.3,0,0,0,3.2,6,7.39,7.39,0,0,1-3.3-.9v0.1a7.29,7.29,0,0,0,5.8,7.1,5.82,5.82,0,0,1-1.9.3,6.6,6.6,0,0,1-1.4-.1,7.11,7.11,0,0,0,6.8,5,14.84,14.84,0,0,1-9,3.1,9.15,9.15,0,0,1-1.7-.1A20.12,20.12,0,0,0,118.7,52c13.3,0,20.6-11,20.6-20.6V30.5a14.52,14.52,0,0,0,3.6-3.8h0Z" transform="translate(-10.6 -5)" fill="#f3f2f2"/><path d="M71.2,35.2A30.3,30.3,0,1,1,40.9,5,30.34,30.34,0,0,1,71.2,35.2h0Z" transform="translate(-10.6 -5)" fill="#84c8bd"/><path d="M48.6,36.4H43.2V56.2H35V36.4H31.1v-7H35V25c0-3.2,1.5-8.3,8.3-8.3h6.1v6.8H45a1.67,1.67,0,0,0-1.7,1.9v4.1h6.1Z" transform="translate(-10.6 -5)" fill="#fff"/><path d="M208.4,67.5a31,31,0,1,0-31-31,31.09,31.09,0,0,0,31,31h0Z" transform="translate(-10.6 -5)" fill="#84c8bd"/><path d="M210.6,39.4c-0.9-.7-1.9-1.4-2.9-2.2-1.4-1.2-.9-2.8.5-3.9a18.27,18.27,0,0,0,3.5-3.2c2.3-3.4,1.2-8.2-2.3-10.8h3.2l3.5-2.2H205.2c-7.9,0-13.9,3-13.4,10.4,0.3,5.1,4.9,7.8,10.7,7.2-1.2,1.9-.4,3.8,1,5.4-14.7.3-16.4,8.6-13,12.4,2.3,2.5,6.3,3.5,10.4,3.4,4.9-.1,10-1.8,12.3-5.1,2-2.9,3.3-6.9-2.6-11.4h0Zm19.1-4.9h-6.1V28.7h-2v5.8h-6.3v2h6.3v5.8h2V36.5h6.1v-2ZM207.4,24.4c1.4,3.5,1.1,7.6-2.6,8.8-4.2,1.3-7.4-2.8-8.1-6.9-0.5-3,.2-5.9,3.1-6.9,3.4-1.1,6.2,1.6,7.6,5h0ZM193.9,46.6c0.8-4,5.7-5.1,11.4-5.1,2.3,1.6,4.6,3.1,5.5,4.8a4.4,4.4,0,0,1-.7,4.7c-1.4,1.8-3.8,2.4-6.1,2.6-4.3.2-7.9-1.5-9.4-3.4a4.59,4.59,0,0,1-.7-3.6h0Z" transform="translate(-10.6 -5)" fill="#fff"/><path d="M322.4,37.7A30.3,30.3,0,1,1,292.1,7.4a30.34,30.34,0,0,1,30.3,30.3h0Z" transform="translate(-10.6 -5)" fill="#84c8bd"/><path d="M310.2,40.1V52.6H303V40.9c0-2.9-1-4.9-3.7-4.9a3.88,3.88,0,0,0-3.7,2.6,5,5,0,0,0-.2,1.8V52.6h-7.2s0.1-19.7,0-21.8h7.2V34h0V33.9a7.22,7.22,0,0,1,6.5-3.6c4.7,0,8.3,3.1,8.3,9.8h0ZM280.5,20.3a3.81,3.81,0,1,0-.1,7.6h0a3.82,3.82,0,0,0,4.1-3.8,3.73,3.73,0,0,0-4-3.8h0Zm-3.6,32.3h7.2V30.8h-7.2V52.6Z" transform="translate(-10.6 -5)" fill="#f3f2f2"/></svg>