<svg id="Слой_1" data-name="Слой 1" xmlns="http://www.w3.org/2000/svg" viewBox="0 0 336.84 74.04"><defs><style>.cls-1{fill:#84c8bd;}.cls-2{fill:#f3f2f2;}.cls-3{fill:#fff;}</style></defs><title>ic_spray</title><g id="Layer_2" data-name="Layer 2"><path class="cls-1" d="M154.59,35.25A30.27,30.27,0,1,1,124.31,5a30.27,30.27,0,0,1,30.27,30.27h0Z"/><path class="cls-2" d="M142.86,26.73a14.46,14.46,0,0,1-4.16,1.14,7.28,7.28,0,0,0,3.18-4,14.55,14.55,0,0,1-4.6,1.76A7.24,7.24,0,0,0,125,32.22,20.54,20.54,0,0,1,110,24.66a7.25,7.25,0,0,0,2.24,9.66,7.21,7.21,0,0,1-3.28-.91v0.09a7.24,7.24,0,0,0,5.8,7.09,7.21,7.21,0,0,1-3.27.13,7.25,7.25,0,0,0,6.76,5,14.51,14.51,0,0,1-9,3.1,14.34,14.34,0,0,1-1.73-.1A20.48,20.48,0,0,0,118.68,52c13.31,0,20.59-11,20.59-20.59,0-.31,0-0.62,0-0.94a14.69,14.69,0,0,0,3.61-3.74h0Z"/></g><g id="Layer_2-2" data-name="Layer 2"><path class="cls-1" d="M154.59,35.25A30.27,30.27,0,1,1,124.31,5a30.27,30.27,0,0,1,30.27,30.27h0Z"/><path class="cls-2" d="M142.86,26.73a14.46,14.46,0,0,1-4.16,1.14,7.28,7.28,0,0,0,3.18-4,14.55,14.55,0,0,1-4.6,1.76A7.24,7.24,0,0,0,125,32.22,20.54,20.54,0,0,1,110,24.66a7.25,7.25,0,0,0,2.24,9.66,7.21,7.21,0,0,1-3.28-.91v0.09a7.24,7.24,0,0,0,5.8,7.09,7.21,7.21,0,0,1-3.27.13,7.25,7.25,0,0,0,6.76,5,14.51,14.51,0,0,1-9,3.1,14.34,14.34,0,0,1-1.73-.1A20.48,20.48,0,0,0,118.68,52c13.31,0,20.59-11,20.59-20.59,0-.31,0-0.62,0-0.94a14.69,14.69,0,0,0,3.61-3.74h0Z"/></g><g id="Layer_2-3" data-name="Layer 2"><path class="cls-1" d="M71.22,35.25A30.27,30.27,0,1,1,40.95,5,30.27,30.27,0,0,1,71.22,35.25h0Z"/><path class="cls-3" d="M48.56,36.43h-5.4V56.22H35V36.43H31.08v-7H35V25c0-3.22,1.53-8.26,8.26-8.26l6.06,0V23.5h-4.4a1.67,1.67,0,0,0-1.74,1.89v4.09h6.12Z"/></g><path class="cls-1" d="M208.43,67.47a31,31,0,1,0-31-31,31.08,31.08,0,0,0,31,31h0Z"/><path class="cls-3" d="M210.63,39.41c-0.93-.71-1.92-1.37-2.91-2.2-1.37-1.15-.88-2.8.55-3.9a18.35,18.35,0,0,0,3.51-3.24,8,8,0,0,0-2.31-10.76h3.19l3.46-2.2H205.19c-7.91,0-13.89,3-13.4,10.38,0.33,5.05,4.94,7.8,10.65,7.19-1.21,1.92-.38,3.85,1,5.38-14.72.33-16.42,8.57-13,12.41,2.25,2.47,6.26,3.46,10.38,3.35,4.89-.05,10-1.76,12.3-5.05,2-2.85,3.29-6.92-2.58-11.37h0Zm19.11-4.89h-6.1V28.7h-2v5.82H215.3v2h6.32v5.76h2V36.5h6.1v-2ZM207.39,24.36c1.37,3.52,1.1,7.63-2.64,8.79-4.23,1.32-7.41-2.8-8.07-6.86-0.49-3,.22-5.88,3.08-6.86,3.4-1.15,6.26,1.59,7.63,4.94h0ZM193.93,46.6c0.77-4,5.66-5.05,11.37-5.05,2.25,1.59,4.56,3.13,5.49,4.83a4.5,4.5,0,0,1-.66,4.67c-1.43,1.76-3.84,2.42-6.15,2.58-4.28.22-7.85-1.48-9.39-3.41a4.28,4.28,0,0,1-.66-3.62h0Z"/><g id="Layer_2-4" data-name="Layer 2"><path class="cls-1" d="M322.36,37.67A30.27,30.27,0,1,1,292.09,7.4a30.27,30.27,0,0,1,30.27,30.27h0Z"/><path class="cls-2" d="M310.17,40.1V52.59h-7.24V40.94c0-2.92-1-4.92-3.67-4.92a4,4,0,0,0-3.71,2.65,4.9,4.9,0,0,0-.24,1.76V52.59h-7.24s0.1-19.72,0-21.76h7.24v3.09l0,0.07h0V33.91a7.18,7.18,0,0,1,6.52-3.6c4.76,0,8.33,3.11,8.33,9.79h0ZM280.52,20.33a3.77,3.77,0,1,0-.09,7.52h0a3.77,3.77,0,1,0,.05-7.52h0Zm-3.67,32.26h7.23V30.82h-7.23V52.59Z"/></g></svg>